<svg xmlns="http://www.w3.org/2000/svg" xmlns:xlink="http://www.w3.org/1999/xlink" width="250" zoomAndPan="magnify" viewBox="0 0 187.5 187.499992" height="250" preserveAspectRatio="xMidYMid meet" version="1.0"><defs><clipPath id="97324a7ff2"><path d="M 12 12 L 175 12 L 175 175 L 12 175 Z M 12 12 " clip-rule="nonzero"/></clipPath><clipPath id="f4344a9a0c"><path d="M 99.867188 16.785156 L 112.847656 51.003906 C 116.894531 61.675781 125.324219 70.105469 136 74.15625 L 170.214844 87.132812 C 172.859375 88.136719 174.609375 90.671875 174.609375 93.5 C 174.609375 96.328125 172.859375 98.863281 170.214844 99.867188 L 136 112.847656 C 125.324219 116.894531 116.894531 125.324219 112.847656 136 L 99.867188 170.214844 C 98.863281 172.859375 96.328125 174.609375 93.5 174.609375 C 90.671875 174.609375 88.136719 172.859375 87.132812 170.214844 L 74.15625 136 C 70.105469 125.324219 61.675781 116.894531 51.003906 112.847656 L 16.785156 99.867188 C 14.140625 98.863281 12.390625 96.328125 12.390625 93.5 C 12.390625 90.671875 14.140625 88.136719 16.785156 87.132812 L 51.003906 74.15625 C 61.675781 70.105469 70.105469 61.675781 74.15625 51.003906 L 87.132812 16.785156 C 88.136719 14.140625 90.671875 12.390625 93.5 12.390625 C 96.328125 12.390625 98.863281 14.140625 99.867188 16.785156 Z M 99.867188 16.785156 " clip-rule="nonzero"/></clipPath><clipPath id="61d0ec30df"><path d="M 0.207031 0.207031 L 162.734375 0.207031 L 162.734375 162.734375 L 0.207031 162.734375 Z M 0.207031 0.207031 " clip-rule="nonzero"/></clipPath><clipPath id="1b5a938dda"><path d="M 87.867188 4.785156 L 100.847656 39.003906 C 104.894531 49.675781 113.324219 58.105469 124 62.15625 L 158.214844 75.132812 C 160.859375 76.136719 162.609375 78.671875 162.609375 81.5 C 162.609375 84.328125 160.859375 86.863281 158.214844 87.867188 L 124 100.847656 C 113.324219 104.894531 104.894531 113.324219 100.847656 124 L 87.867188 158.214844 C 86.863281 160.859375 84.328125 162.609375 81.5 162.609375 C 78.671875 162.609375 76.136719 160.859375 75.132812 158.214844 L 62.15625 124 C 58.105469 113.324219 49.675781 104.894531 39.003906 100.847656 L 4.785156 87.867188 C 2.140625 86.863281 0.390625 84.328125 0.390625 81.5 C 0.390625 78.671875 2.140625 76.136719 4.785156 75.132812 L 39.003906 62.15625 C 49.675781 58.105469 58.105469 49.675781 62.15625 39.003906 L 75.132812 4.785156 C 76.136719 2.140625 78.671875 0.390625 81.5 0.390625 C 84.328125 0.390625 86.863281 2.140625 87.867188 4.785156 Z M 87.867188 4.785156 " clip-rule="nonzero"/></clipPath><clipPath id="c3f3b42c39"><rect x="0" width="163" y="0" height="163"/></clipPath></defs><g clip-path="url(#97324a7ff2)"><g clip-path="url(#f4344a9a0c)"><g transform="matrix(1, 0, 0, 1, 12, 12)"><g clip-path="url(#c3f3b42c39)"><g clip-path="url(#61d0ec30df)"><g clip-path="url(#1b5a938dda)"><rect x="-53.25" width="270" fill="#ffffff" height="269.999988" y="-53.249998" fill-opacity="1"/></g></g></g></g></g></g></svg>