<svg width="880" height="1080" viewBox="0 0 880 1080" fill="none" xmlns="http://www.w3.org/2000/svg">
<g clip-path="url(#clip0_32_425)">
<rect width="880" height="1080" fill="#141414"/>
<rect x="1108.78" y="224" width="440.001" height="1376.51" rx="55" transform="rotate(43 1108.78 224)" fill="#255389" fill-opacity="0.8"/>
<rect x="1536.58" y="487.338" width="445.827" height="1376.51" rx="55" transform="rotate(135 1536.58 487.338)" fill="#255389" fill-opacity="0.8"/>
<rect x="821.264" y="203.132" width="300" height="300" rx="150" transform="rotate(135 821.264 203.132)" fill="#255389" fill-opacity="0.8"/>
<rect x="702.686" y="1103.84" width="400" height="400" rx="75" transform="rotate(135 702.686 1103.84)" fill="#255389" fill-opacity="0.8"/>
<path d="M456.621 528.345C459.843 519.639 472.157 519.639 475.379 528.345L504.918 608.174C505.931 610.911 508.089 613.069 510.826 614.082L590.655 643.621C599.361 646.843 599.361 659.157 590.655 662.378L510.826 691.918C508.089 692.93 505.931 695.089 504.918 697.826L475.379 777.655C472.157 786.361 459.843 786.361 456.621 777.655L427.082 697.826C426.069 695.089 423.911 692.93 421.174 691.918L341.345 662.378C332.639 659.157 332.639 646.843 341.345 643.621L421.174 614.082C423.911 613.069 426.069 610.911 427.082 608.174L456.621 528.345Z" fill="#255389"/>
<rect x="465.686" y="1187.84" width="400" height="400" rx="75" transform="rotate(135 465.686 1187.84)" fill="#255389" fill-opacity="0.8"/>
</g>
<defs>
<clipPath id="clip0_32_425">
<rect width="880" height="1080" fill="white"/>
</clipPath>
</defs>
</svg>
