<svg width="789" height="1080" viewBox="0 0 789 1080" fill="none" xmlns="http://www.w3.org/2000/svg">
<g clip-path="url(#clip0_29_424)">
<rect width="789" height="1080" fill="white"/>
<rect x="1086.78" y="242" width="440.001" height="1376.51" rx="55" transform="rotate(43 1086.78 242)" fill="#255389" fill-opacity="0.8"/>
<rect x="1514.58" y="505.338" width="445.827" height="1376.51" rx="55" transform="rotate(135 1514.58 505.338)" fill="#255389" fill-opacity="0.8"/>
<rect x="799.264" y="221.132" width="300" height="300" rx="150" transform="rotate(135 799.264 221.132)" fill="#255389" fill-opacity="0.8"/>
<rect x="680.686" y="1121.84" width="400" height="400" rx="75" transform="rotate(135 680.686 1121.84)" fill="#255389" fill-opacity="0.8"/>
<path d="M434.621 546.345C437.843 537.639 450.157 537.639 453.379 546.345L482.918 626.174C483.931 628.911 486.089 631.069 488.826 632.082L568.655 661.621C577.361 664.843 577.361 677.157 568.655 680.378L488.826 709.918C486.089 710.93 483.931 713.089 482.918 715.826L453.379 795.655C450.157 804.361 437.843 804.361 434.621 795.655L405.082 715.826C404.069 713.089 401.911 710.93 399.174 709.918L319.345 680.378C310.639 677.157 310.639 664.843 319.345 661.621L399.174 632.082C401.911 631.069 404.069 628.911 405.082 626.174L434.621 546.345Z" fill="#255389"/>
<rect x="443.686" y="1205.84" width="400" height="400" rx="75" transform="rotate(135 443.686 1205.84)" fill="#255389" fill-opacity="0.8"/>
</g>
<defs>
<clipPath id="clip0_29_424">
<rect width="789" height="1080" fill="white"/>
</clipPath>
</defs>
</svg>
